<?xml version="1.0" encoding="UTF-8"?><svg xmlns="http://www.w3.org/2000/svg" xmlns:xlink="http://www.w3.org/1999/xlink" fill-opacity="1" color-rendering="auto" color-interpolation="auto" text-rendering="auto" stroke="black" stroke-linecap="square" width="406" stroke-miterlimit="10" shape-rendering="auto" stroke-opacity="1" fill="black" stroke-dasharray="none" font-weight="normal" stroke-width="1" height="297" font-family="'Dialog'" font-style="normal" stroke-linejoin="miter" font-size="12px" stroke-dashoffset="0" image-rendering="auto">
  <!--Generated by ySVG 2.5-->
  <defs id="genericDefs"/>
  <g>
    <defs id="defs1">
      <clipPath clipPathUnits="userSpaceOnUse" id="clipPath1">
        <path d="M0 0 L406 0 L406 297 L0 297 L0 0 Z"/>
      </clipPath>
      <clipPath clipPathUnits="userSpaceOnUse" id="clipPath2">
        <path d="M414 172 L820 172 L820 469 L414 469 L414 172 Z"/>
      </clipPath>
    </defs>
    <g fill="white" text-rendering="geometricPrecision" shape-rendering="geometricPrecision" transform="translate(-414,-172)" stroke="white">
      <rect x="414" width="406" height="297" y="172" clip-path="url(#clipPath2)" stroke="none"/>
    </g>
    <g fill="rgb(255,204,0)" text-rendering="geometricPrecision" shape-rendering="geometricPrecision" transform="matrix(1,0,0,1,-414,-172)" stroke="rgb(255,204,0)">
      <circle r="15" clip-path="url(#clipPath2)" cx="711" cy="250" stroke="none"/>
    </g>
    <g text-rendering="geometricPrecision" stroke-miterlimit="1.45" shape-rendering="geometricPrecision" transform="matrix(1,0,0,1,-414,-172)" stroke-linecap="butt">
      <circle fill="none" r="15" clip-path="url(#clipPath2)" cx="711" cy="250"/>
      <text x="703.8838" xml:space="preserve" y="254.1543" clip-path="url(#clipPath2)" font-family="sans-serif" stroke="none">c3</text>
    </g>
    <g fill="rgb(255,204,0)" text-rendering="geometricPrecision" shape-rendering="geometricPrecision" transform="matrix(1,0,0,1,-414,-172)" stroke="rgb(255,204,0)">
      <circle r="15" clip-path="url(#clipPath2)" cx="628" cy="342" stroke="none"/>
    </g>
    <g text-rendering="geometricPrecision" stroke-miterlimit="1.45" shape-rendering="geometricPrecision" transform="matrix(1,0,0,1,-414,-172)" stroke-linecap="butt">
      <circle fill="none" r="15" clip-path="url(#clipPath2)" cx="628" cy="342"/>
      <text x="620.8838" xml:space="preserve" y="346.1543" clip-path="url(#clipPath2)" font-family="sans-serif" stroke="none">c1</text>
    </g>
    <g fill="rgb(255,204,0)" text-rendering="geometricPrecision" shape-rendering="geometricPrecision" transform="matrix(1,0,0,1,-414,-172)" stroke="rgb(255,204,0)">
      <circle r="15" clip-path="url(#clipPath2)" cx="768" cy="353" stroke="none"/>
    </g>
    <g text-rendering="geometricPrecision" stroke-miterlimit="1.45" shape-rendering="geometricPrecision" transform="matrix(1,0,0,1,-414,-172)" stroke-linecap="butt">
      <circle fill="none" r="15" clip-path="url(#clipPath2)" cx="768" cy="353"/>
      <text x="760.8838" xml:space="preserve" y="357.1543" clip-path="url(#clipPath2)" font-family="sans-serif" stroke="none">c2</text>
      <circle fill="none" r="15" clip-path="url(#clipPath2)" cx="499" cy="419.5"/>
      <text x="431.5205" xml:space="preserve" y="425.6699" clip-path="url(#clipPath2)" font-family="sans-serif" stroke="none">client</text>
    </g>
    <g fill="rgb(204,255,204)" text-rendering="geometricPrecision" shape-rendering="geometricPrecision" transform="matrix(1,0,0,1,-414,-172)" stroke="rgb(204,255,204)">
      <circle r="15" clip-path="url(#clipPath2)" cx="790" cy="398" stroke="none"/>
    </g>
    <g text-rendering="geometricPrecision" stroke-miterlimit="1.45" shape-rendering="geometricPrecision" transform="matrix(1,0,0,1,-414,-172)" stroke-linecap="butt">
      <circle fill="none" r="15" clip-path="url(#clipPath2)" cx="790" cy="398"/>
      <text x="783.0566" xml:space="preserve" y="402.1543" clip-path="url(#clipPath2)" font-family="sans-serif" stroke="none">s2</text>
    </g>
    <g fill="rgb(204,255,204)" text-rendering="geometricPrecision" shape-rendering="geometricPrecision" transform="matrix(1,0,0,1,-414,-172)" stroke="rgb(204,255,204)">
      <circle r="15" clip-path="url(#clipPath2)" cx="726" cy="202" stroke="none"/>
    </g>
    <g text-rendering="geometricPrecision" stroke-miterlimit="1.45" shape-rendering="geometricPrecision" transform="matrix(1,0,0,1,-414,-172)" stroke-linecap="butt">
      <circle fill="none" r="15" clip-path="url(#clipPath2)" cx="726" cy="202"/>
      <text x="719.0566" xml:space="preserve" y="206.1543" clip-path="url(#clipPath2)" font-family="sans-serif" stroke="none">s3</text>
    </g>
    <g fill="lime" text-rendering="geometricPrecision" shape-rendering="geometricPrecision" transform="matrix(1,0,0,1,-414,-172)" stroke="lime">
      <circle r="15" clip-path="url(#clipPath2)" cx="579" cy="377" stroke="none"/>
    </g>
    <g text-rendering="geometricPrecision" stroke-miterlimit="1.45" shape-rendering="geometricPrecision" transform="matrix(1,0,0,1,-414,-172)" stroke-linecap="butt">
      <circle fill="none" r="15" clip-path="url(#clipPath2)" cx="579" cy="377"/>
      <text x="572.0566" xml:space="preserve" y="381.1543" clip-path="url(#clipPath2)" font-family="sans-serif" stroke="none">s1</text>
    </g>
    <g stroke-linecap="round" transform="matrix(1,0,0,1,-414,-172)" stroke-dashoffset="2" text-rendering="geometricPrecision" shape-rendering="geometricPrecision" stroke-dasharray="0,12" stroke-width="3" stroke-miterlimit="1.45">
      <path fill="none" d="M628.2278 327.0017 L628.3125 321.4219 L631.5 303.4375 L637.5625 288.0469 L646.5 275.25 L658.3125 265.0469 L673 257.4375 L690.5625 252.4219 L696.1042 251.7652" clip-path="url(#clipPath2)"/>
      <path fill="none" d="M725.1084 255.0944 L729.3906 256.6406 L744.5625 265.0625 L756.5156 275.2656 L765.25 287.25 L770.7656 301.0156 L773.0625 316.5625 L772.1406 333.8906 L771.1765 338.3402" clip-path="url(#clipPath2)"/>
      <path fill="none" d="M755.9724 361.963 L749.2969 366.9375 L730.9375 376.5 L721.8867 379.6406 L712.9219 381.6875 L704.043 382.6406 L695.25 382.5 L686.543 381.2656 L677.9219 378.9375 L669.3867 375.5156 L660.9375 371 L644.2969 358.6875 L638.4803 352.7314" clip-path="url(#clipPath2)"/>
    </g>
    <g stroke-linecap="butt" transform="matrix(1,0,0,1,-414,-172)" fill="rgb(255,102,0)" text-rendering="geometricPrecision" shape-rendering="geometricPrecision" stroke="rgb(255,102,0)" stroke-width="3" stroke-miterlimit="1.45">
      <path fill="none" d="M776.6254 391.226 L776.0625 390.875 L771.2031 386.2812 L767.75 381 L766.587 377.6087 L766.5792 377.509" clip-path="url(#clipPath2)"/>
      <path d="M765.1167 367.6165 L761.1277 383.3693 L766.762 378.7455 L773.4933 381.5411 Z" clip-path="url(#clipPath2)" stroke="none"/>
    </g>
    <g text-rendering="geometricPrecision" stroke-miterlimit="1.45" shape-rendering="geometricPrecision" font-family="sans-serif" transform="matrix(1,0,0,1,-414,-172)" stroke-linecap="butt">
      <text x="794.0475" xml:space="preserve" y="372.4221" clip-path="url(#clipPath2)" stroke="none">3</text>
    </g>
    <g stroke-linecap="butt" transform="matrix(1,0,0,1,-414,-172)" fill="rgb(255,102,0)" text-rendering="geometricPrecision" shape-rendering="geometricPrecision" stroke="rgb(255,102,0)" stroke-width="3" stroke-miterlimit="1.45">
      <path fill="none" d="M731.0669 216.1121 L731.25 216.8125 L731.625 223.5156 L730.5 229.75 L728.9681 233.1147 L728.9051 233.1924" clip-path="url(#clipPath2)"/>
      <path d="M723.1432 241.3656 L736.8943 232.707 L729.6254 232.1708 L726.6779 225.5047 Z" clip-path="url(#clipPath2)" stroke="none"/>
      <path fill="none" d="M504.3351 405.4808 L504.3516 405.4375 L511.0312 393.875 L519.0391 384.8125 L528.375 378.25 L539.0391 374.1875 L551.0312 372.625 L556.417 373.0041 L556.5143 373.0269" stroke-width="1" clip-path="url(#clipPath2)" stroke="black"/>
      <path fill="black" d="M564.4952 373.5799 L552.8695 367.7624 L555.5167 372.9578 L552.1782 377.7384 Z" stroke-width="1" clip-path="url(#clipPath2)" stroke="none"/>
    </g>
    <g text-rendering="geometricPrecision" stroke-miterlimit="1.45" shape-rendering="geometricPrecision" font-family="sans-serif" transform="matrix(1,0,0,1,-414,-172)" stroke-linecap="butt">
      <text x="500.1206" xml:space="preserve" y="365.0022" clip-path="url(#clipPath2)" stroke="none">1</text>
      <path fill="none" d="M577.0729 362.1243 L576.2883 356.0672 L575.1631 336.467 L575.6246 318.1996 L577.6725 301.2649 L581.3071 285.6629 L586.5281 271.3936 L593.3358 258.4571 L601.73 246.8532 L611.7108 236.5821 L623.2781 227.6436 L636.4321 220.0379 L651.1725 213.7649 L667.4996 208.8246 L685.4131 205.217 L703.0301 203.1618 L703.13 203.1574" clip-path="url(#clipPath2)"/>
      <path d="M711.1147 202.6633 L698.8289 198.4139 L702.1319 203.2191 L699.4464 208.3948 Z" clip-path="url(#clipPath2)" stroke="none"/>
      <path fill="none" d="M594 377 L605.2345 387.7903 L616.6044 397.3168 L628.1097 405.5797 L639.7505 412.5788 L651.5266 418.3143 L663.4381 422.786 L675.485 425.9941 L687.6673 427.9384 L699.985 428.6191 L712.4381 428.036 L725.0266 426.1893 L737.7505 423.0788 L750.6097 418.7047 L763.6044 413.0668 L770.1629 409.6195 L770.248 409.5671" clip-path="url(#clipPath2)"/>
      <path d="M777.3141 405.816 L764.3705 407.0264 L769.3647 410.036 L769.0594 415.8589 Z" clip-path="url(#clipPath2)" stroke="none"/>
      <text x="651.4736" xml:space="preserve" y="448.635" clip-path="url(#clipPath2)" stroke="none">2</text>
    </g>
    <g stroke-linecap="butt" transform="matrix(1,0,0,1,-414,-172)" fill="rgb(255,102,0)" text-rendering="geometricPrecision" shape-rendering="geometricPrecision" stroke="rgb(255,102,0)" stroke-width="2" stroke-miterlimit="1.45">
      <path fill="none" d="M583.2173 362.6193 L584.6875 359.0625 L589.1719 352.3906 L594.75 347.25 L601.4219 343.6406 L604.1687 342.9056 L604.2685 342.8994" clip-path="url(#clipPath2)"/>
      <path d="M613.1266 341.3078 L598.8447 338.1589 L603.1613 343.0984 L600.8342 349.2315 Z" clip-path="url(#clipPath2)" stroke="none"/>
      <path fill="none" d="M573.6784 391.0243 L573.6575 391.0795 L566.9843 402.6541 L558.9803 411.7239 L549.6456 418.2888 L538.9803 422.3489 L526.9843 423.9041 L521.579 423.5189 L521.4817 423.496" stroke-width="1" clip-path="url(#clipPath2)" stroke="black"/>
      <path fill="black" d="M513.5015 422.934 L525.1205 428.7646 L522.4792 423.5662 L525.8231 418.7893 Z" stroke-width="1" clip-path="url(#clipPath2)" stroke="none"/>
    </g>
    <g text-rendering="geometricPrecision" stroke-miterlimit="1.45" shape-rendering="geometricPrecision" font-family="sans-serif" transform="matrix(1,0,0,1,-414,-172)" stroke-linecap="butt">
      <text x="579.6238" xml:space="preserve" y="426.6818" clip-path="url(#clipPath2)" stroke="none">5</text>
      <path fill="none" stroke-dasharray="6,2" d="M601.5023 381.7587 L631.1744 388.0336 L683.7325 395.2115 L736.6744 398.5336 L767.0012 398.2301" clip-path="url(#clipPath2)"/>
      <path stroke-dasharray="6,2" d="M593.6754 380.1035 L604.3812 387.4781 L602.4807 381.9656 L606.4503 377.6945 Z" clip-path="url(#clipPath2)" stroke="none"/>
      <path stroke-dasharray="6,2" d="M775.0007 398.1501 L762.9513 393.2704 L766.0012 398.2401 L763.0514 403.2699 Z" clip-path="url(#clipPath2)" stroke="none"/>
      <path fill="none" stroke-dasharray="6,2" d="M586.5031 355.2582 L588.9821 348.0749 L601.3621 321.1642 L616.1401 296.2677 L633.3162 273.3856 L652.8901 252.5177 L674.8621 233.6642 L699.2321 216.8249 L705.8797 213.1433" clip-path="url(#clipPath2)"/>
      <path stroke-dasharray="6,2" d="M583.8933 362.8206 L592.5345 353.1082 L586.8293 354.313 L583.0815 349.8459 Z" clip-path="url(#clipPath2)" stroke="none"/>
      <path stroke-dasharray="6,2" d="M712.8781 209.2673 L699.9581 210.7072 L705.0049 213.6277 L704.803 219.4552 Z" clip-path="url(#clipPath2)" stroke="none"/>
      <text x="687.8428" xml:space="preserve" y="411.7757" clip-path="url(#clipPath2)" stroke="none">4</text>
    </g>
  </g>
</svg>
